<mxfile host="app.diagrams.net" agent="Mozilla/5.0 (X11; Linux x86_64) AppleWebKit/537.36 (KHTML, like Gecko) Chrome/134.0.0.0 Safari/537.36" version="26.0.16">
  <diagram id="C5RBs43oDa-KdzZeNtuy" name="Page-1">
    <mxGraphModel dx="1527" dy="804" grid="1" gridSize="10" guides="1" tooltips="1" connect="1" arrows="1" fold="1" page="1" pageScale="1" pageWidth="827" pageHeight="1169" math="0" shadow="0">
      <root>
        <mxCell id="WIyWlLk6GJQsqaUBKTNV-0" />
        <mxCell id="WIyWlLk6GJQsqaUBKTNV-1" parent="WIyWlLk6GJQsqaUBKTNV-0" />
        <mxCell id="UZjiTzk7R62L4bwhpmuB-5" style="edgeStyle=none;curved=1;rounded=0;orthogonalLoop=1;jettySize=auto;html=1;exitX=0.5;exitY=1;exitDx=0;exitDy=0;entryX=0.5;entryY=0;entryDx=0;entryDy=0;fontSize=12;startSize=8;endSize=8;" edge="1" parent="WIyWlLk6GJQsqaUBKTNV-1" source="UZjiTzk7R62L4bwhpmuB-0" target="UZjiTzk7R62L4bwhpmuB-1">
          <mxGeometry relative="1" as="geometry" />
        </mxCell>
        <mxCell id="UZjiTzk7R62L4bwhpmuB-0" value="2FA &quot;Helpdesk&quot; Frontend" style="rounded=0;whiteSpace=wrap;html=1;fillColor=#dae8fc;strokeColor=#6c8ebf;" vertex="1" parent="WIyWlLk6GJQsqaUBKTNV-1">
          <mxGeometry x="380" y="340" width="130" height="60" as="geometry" />
        </mxCell>
        <mxCell id="UZjiTzk7R62L4bwhpmuB-9" style="edgeStyle=none;curved=1;rounded=0;orthogonalLoop=1;jettySize=auto;html=1;exitX=0.25;exitY=1;exitDx=0;exitDy=0;entryX=0.086;entryY=0;entryDx=0;entryDy=0;fontSize=12;startSize=8;endSize=8;entryPerimeter=0;" edge="1" parent="WIyWlLk6GJQsqaUBKTNV-1" source="UZjiTzk7R62L4bwhpmuB-1" target="UZjiTzk7R62L4bwhpmuB-8">
          <mxGeometry relative="1" as="geometry" />
        </mxCell>
        <mxCell id="UZjiTzk7R62L4bwhpmuB-12" value="get 2fa groups&lt;br&gt;(from 2fa role)" style="edgeLabel;html=1;align=center;verticalAlign=middle;resizable=0;points=[];fontSize=12;" vertex="1" connectable="0" parent="UZjiTzk7R62L4bwhpmuB-9">
          <mxGeometry x="-0.5714" relative="1" as="geometry">
            <mxPoint x="-9" y="5" as="offset" />
          </mxGeometry>
        </mxCell>
        <mxCell id="UZjiTzk7R62L4bwhpmuB-10" style="edgeStyle=none;curved=1;rounded=0;orthogonalLoop=1;jettySize=auto;html=1;exitX=0.5;exitY=1;exitDx=0;exitDy=0;fontSize=12;startSize=8;endSize=8;" edge="1" parent="WIyWlLk6GJQsqaUBKTNV-1" source="UZjiTzk7R62L4bwhpmuB-1" target="UZjiTzk7R62L4bwhpmuB-8">
          <mxGeometry relative="1" as="geometry" />
        </mxCell>
        <mxCell id="UZjiTzk7R62L4bwhpmuB-13" value="reset/delete&lt;div&gt;User 2fa-Token&lt;/div&gt;" style="edgeLabel;html=1;align=center;verticalAlign=middle;resizable=0;points=[];fontSize=12;" vertex="1" connectable="0" parent="UZjiTzk7R62L4bwhpmuB-10">
          <mxGeometry x="0.2714" y="1" relative="1" as="geometry">
            <mxPoint as="offset" />
          </mxGeometry>
        </mxCell>
        <mxCell id="UZjiTzk7R62L4bwhpmuB-11" style="edgeStyle=none;curved=1;rounded=0;orthogonalLoop=1;jettySize=auto;html=1;exitX=0.75;exitY=1;exitDx=0;exitDy=0;entryX=0.923;entryY=-0.017;entryDx=0;entryDy=0;fontSize=12;startSize=8;endSize=8;entryPerimeter=0;" edge="1" parent="WIyWlLk6GJQsqaUBKTNV-1" source="UZjiTzk7R62L4bwhpmuB-1" target="UZjiTzk7R62L4bwhpmuB-8">
          <mxGeometry relative="1" as="geometry" />
        </mxCell>
        <mxCell id="UZjiTzk7R62L4bwhpmuB-14" value="add role-&amp;gt;group&lt;br&gt;mapping for 2fa?" style="edgeLabel;html=1;align=center;verticalAlign=middle;resizable=0;points=[];fontSize=12;" vertex="1" connectable="0" parent="UZjiTzk7R62L4bwhpmuB-11">
          <mxGeometry x="-0.5969" y="2" relative="1" as="geometry">
            <mxPoint y="1" as="offset" />
          </mxGeometry>
        </mxCell>
        <mxCell id="UZjiTzk7R62L4bwhpmuB-15" style="edgeStyle=none;curved=0;rounded=0;orthogonalLoop=1;jettySize=auto;html=1;exitX=0;exitY=0.5;exitDx=0;exitDy=0;fontSize=12;startSize=8;endSize=8;entryX=0.5;entryY=0;entryDx=0;entryDy=0;" edge="1" parent="WIyWlLk6GJQsqaUBKTNV-1" source="UZjiTzk7R62L4bwhpmuB-1" target="UZjiTzk7R62L4bwhpmuB-6">
          <mxGeometry relative="1" as="geometry">
            <mxPoint x="120" y="520" as="targetPoint" />
            <Array as="points">
              <mxPoint x="120" y="520" />
            </Array>
          </mxGeometry>
        </mxCell>
        <mxCell id="UZjiTzk7R62L4bwhpmuB-16" value="get users in group,&lt;br&gt;add user to group" style="edgeLabel;html=1;align=center;verticalAlign=middle;resizable=0;points=[];fontSize=12;" vertex="1" connectable="0" parent="UZjiTzk7R62L4bwhpmuB-15">
          <mxGeometry x="-0.0047" y="-1" relative="1" as="geometry">
            <mxPoint x="24" as="offset" />
          </mxGeometry>
        </mxCell>
        <mxCell id="UZjiTzk7R62L4bwhpmuB-34" style="edgeStyle=none;curved=0;rounded=0;orthogonalLoop=1;jettySize=auto;html=1;exitX=1;exitY=0.5;exitDx=0;exitDy=0;fontSize=12;startSize=8;endSize=8;" edge="1" parent="WIyWlLk6GJQsqaUBKTNV-1" source="UZjiTzk7R62L4bwhpmuB-1" target="UZjiTzk7R62L4bwhpmuB-7">
          <mxGeometry relative="1" as="geometry">
            <mxPoint x="610" y="520" as="targetPoint" />
            <Array as="points">
              <mxPoint x="760" y="520" />
            </Array>
          </mxGeometry>
        </mxCell>
        <mxCell id="UZjiTzk7R62L4bwhpmuB-35" value="checks if user&lt;br&gt;is functional admin for domain" style="edgeLabel;html=1;align=center;verticalAlign=middle;resizable=0;points=[];fontSize=12;" vertex="1" connectable="0" parent="UZjiTzk7R62L4bwhpmuB-34">
          <mxGeometry x="-0.2586" y="-3" relative="1" as="geometry">
            <mxPoint as="offset" />
          </mxGeometry>
        </mxCell>
        <mxCell id="UZjiTzk7R62L4bwhpmuB-1" value="&lt;font style=&quot;font-size: 24px;&quot;&gt;2FA Backend&lt;/font&gt;" style="rounded=0;whiteSpace=wrap;html=1;fillColor=#f0a30a;fontColor=#000000;strokeColor=#BD7000;fontStyle=1" vertex="1" parent="WIyWlLk6GJQsqaUBKTNV-1">
          <mxGeometry x="380" y="490" width="130" height="60" as="geometry" />
        </mxCell>
        <mxCell id="UZjiTzk7R62L4bwhpmuB-3" style="edgeStyle=none;curved=0;rounded=0;orthogonalLoop=1;jettySize=auto;html=1;exitX=0.5;exitY=1;exitDx=0;exitDy=0;entryX=1;entryY=0.5;entryDx=0;entryDy=0;fontSize=12;startSize=8;endSize=8;strokeColor=default;" edge="1" parent="WIyWlLk6GJQsqaUBKTNV-1" source="UZjiTzk7R62L4bwhpmuB-2" target="UZjiTzk7R62L4bwhpmuB-0">
          <mxGeometry relative="1" as="geometry">
            <Array as="points">
              <mxPoint x="645" y="370" />
            </Array>
          </mxGeometry>
        </mxCell>
        <mxCell id="UZjiTzk7R62L4bwhpmuB-4" value="links via Tile, no further interaction?" style="edgeLabel;html=1;align=center;verticalAlign=middle;resizable=0;points=[];fontSize=12;" vertex="1" connectable="0" parent="UZjiTzk7R62L4bwhpmuB-3">
          <mxGeometry x="-0.4044" y="1" relative="1" as="geometry">
            <mxPoint x="34" y="-17" as="offset" />
          </mxGeometry>
        </mxCell>
        <mxCell id="UZjiTzk7R62L4bwhpmuB-2" value="Portal" style="rounded=0;whiteSpace=wrap;html=1;fillColor=#dae8fc;strokeColor=#6c8ebf;" vertex="1" parent="WIyWlLk6GJQsqaUBKTNV-1">
          <mxGeometry x="580" y="220" width="130" height="60" as="geometry" />
        </mxCell>
        <mxCell id="UZjiTzk7R62L4bwhpmuB-25" style="edgeStyle=none;curved=1;rounded=0;orthogonalLoop=1;jettySize=auto;html=1;exitX=0.5;exitY=1;exitDx=0;exitDy=0;entryX=0.5;entryY=0;entryDx=0;entryDy=0;fontSize=12;startSize=8;endSize=8;" edge="1" parent="WIyWlLk6GJQsqaUBKTNV-1" source="UZjiTzk7R62L4bwhpmuB-6" target="UZjiTzk7R62L4bwhpmuB-24">
          <mxGeometry relative="1" as="geometry" />
        </mxCell>
        <mxCell id="UZjiTzk7R62L4bwhpmuB-6" value="UDM-API" style="rounded=0;whiteSpace=wrap;html=1;fillColor=#f8cecc;strokeColor=#b85450;" vertex="1" parent="WIyWlLk6GJQsqaUBKTNV-1">
          <mxGeometry x="50" y="690" width="140" height="60" as="geometry" />
        </mxCell>
        <mxCell id="UZjiTzk7R62L4bwhpmuB-7" value="UDM Guardian" style="rounded=0;whiteSpace=wrap;html=1;fillColor=#f8cecc;strokeColor=#b85450;" vertex="1" parent="WIyWlLk6GJQsqaUBKTNV-1">
          <mxGeometry x="697" y="690" width="130" height="60" as="geometry" />
        </mxCell>
        <mxCell id="UZjiTzk7R62L4bwhpmuB-26" style="edgeStyle=none;curved=0;rounded=0;orthogonalLoop=1;jettySize=auto;html=1;exitX=0.25;exitY=1;exitDx=0;exitDy=0;entryX=1;entryY=0.5;entryDx=0;entryDy=0;fontSize=12;startSize=8;endSize=8;" edge="1" parent="WIyWlLk6GJQsqaUBKTNV-1" source="UZjiTzk7R62L4bwhpmuB-8" target="UZjiTzk7R62L4bwhpmuB-24">
          <mxGeometry relative="1" as="geometry">
            <Array as="points">
              <mxPoint x="360" y="840" />
            </Array>
          </mxGeometry>
        </mxCell>
        <mxCell id="UZjiTzk7R62L4bwhpmuB-27" value="maps users from&lt;br&gt;group to role" style="edgeLabel;html=1;align=center;verticalAlign=middle;resizable=0;points=[];fontSize=12;" vertex="1" connectable="0" parent="UZjiTzk7R62L4bwhpmuB-26">
          <mxGeometry x="0.3923" y="-4" relative="1" as="geometry">
            <mxPoint as="offset" />
          </mxGeometry>
        </mxCell>
        <mxCell id="UZjiTzk7R62L4bwhpmuB-8" value="Keycloak" style="rounded=0;whiteSpace=wrap;html=1;fillColor=#e1d5e7;strokeColor=#9673a6;" vertex="1" parent="WIyWlLk6GJQsqaUBKTNV-1">
          <mxGeometry x="270" y="690" width="360" height="60" as="geometry" />
        </mxCell>
        <mxCell id="UZjiTzk7R62L4bwhpmuB-21" value="" style="group;fillColor=#fff2cc;strokeColor=#d6b656;" vertex="1" connectable="0" parent="WIyWlLk6GJQsqaUBKTNV-1">
          <mxGeometry x="260" y="330" width="120" height="80" as="geometry" />
        </mxCell>
        <mxCell id="UZjiTzk7R62L4bwhpmuB-17" value="List 2FA Groups" style="rounded=0;whiteSpace=wrap;html=1;fillColor=#fff2cc;strokeColor=#d6b656;" vertex="1" parent="UZjiTzk7R62L4bwhpmuB-21">
          <mxGeometry width="120" height="20" as="geometry" />
        </mxCell>
        <mxCell id="UZjiTzk7R62L4bwhpmuB-18" value="List Users in Group" style="rounded=0;whiteSpace=wrap;html=1;fillColor=#fff2cc;strokeColor=#d6b656;" vertex="1" parent="UZjiTzk7R62L4bwhpmuB-21">
          <mxGeometry y="20" width="120" height="20" as="geometry" />
        </mxCell>
        <mxCell id="UZjiTzk7R62L4bwhpmuB-19" value="Reset 2FA for user" style="rounded=0;whiteSpace=wrap;html=1;fillColor=#fff2cc;strokeColor=#d6b656;" vertex="1" parent="UZjiTzk7R62L4bwhpmuB-21">
          <mxGeometry y="40" width="120" height="20" as="geometry" />
        </mxCell>
        <mxCell id="UZjiTzk7R62L4bwhpmuB-20" value="Reset 2FA for self" style="rounded=0;whiteSpace=wrap;html=1;fillColor=#fff2cc;strokeColor=#d6b656;" vertex="1" parent="UZjiTzk7R62L4bwhpmuB-21">
          <mxGeometry y="60" width="120" height="20" as="geometry" />
        </mxCell>
        <mxCell id="UZjiTzk7R62L4bwhpmuB-22" value="Add User to 2FA Group" style="rounded=0;whiteSpace=wrap;html=1;fillColor=#fff2cc;strokeColor=#d6b656;" vertex="1" parent="WIyWlLk6GJQsqaUBKTNV-1">
          <mxGeometry x="260" y="410" width="120" height="30" as="geometry" />
        </mxCell>
        <mxCell id="UZjiTzk7R62L4bwhpmuB-24" value="LDAP" style="rounded=0;whiteSpace=wrap;html=1;fillColor=#f8cecc;strokeColor=#b85450;" vertex="1" parent="WIyWlLk6GJQsqaUBKTNV-1">
          <mxGeometry x="50" y="810" width="140" height="60" as="geometry" />
        </mxCell>
        <mxCell id="UZjiTzk7R62L4bwhpmuB-33" value="Enforces 2FA for Role" style="rounded=0;whiteSpace=wrap;html=1;fillColor=#fff2cc;strokeColor=#d6b656;" vertex="1" parent="WIyWlLk6GJQsqaUBKTNV-1">
          <mxGeometry x="440" y="750" width="120" height="30" as="geometry" />
        </mxCell>
        <mxCell id="UZjiTzk7R62L4bwhpmuB-37" style="edgeStyle=none;curved=1;rounded=0;orthogonalLoop=1;jettySize=auto;html=1;exitX=1;exitY=1;exitDx=0;exitDy=0;entryX=0;entryY=0.25;entryDx=0;entryDy=0;fontSize=12;startSize=8;endSize=8;" edge="1" parent="WIyWlLk6GJQsqaUBKTNV-1" source="UZjiTzk7R62L4bwhpmuB-36" target="UZjiTzk7R62L4bwhpmuB-1">
          <mxGeometry relative="1" as="geometry" />
        </mxCell>
        <mxCell id="UZjiTzk7R62L4bwhpmuB-36" value="&lt;b&gt;Aufgabe 1:&lt;br&gt;&lt;/b&gt;- wie authentifizieren?&lt;div&gt;- machen wir OIDC wie intercom service?&lt;/div&gt;&lt;div&gt;- frontend login?&lt;/div&gt;&lt;div&gt;&lt;br&gt;&lt;/div&gt;" style="ellipse;whiteSpace=wrap;html=1;fillColor=#d5e8d4;strokeColor=#82b366;" vertex="1" parent="WIyWlLk6GJQsqaUBKTNV-1">
          <mxGeometry x="-80" y="300" width="200" height="100" as="geometry" />
        </mxCell>
        <mxCell id="UZjiTzk7R62L4bwhpmuB-39" style="edgeStyle=none;curved=1;rounded=0;orthogonalLoop=1;jettySize=auto;html=1;exitX=1;exitY=0.5;exitDx=0;exitDy=0;fontSize=12;startSize=8;endSize=8;" edge="1" parent="WIyWlLk6GJQsqaUBKTNV-1" source="UZjiTzk7R62L4bwhpmuB-38" target="UZjiTzk7R62L4bwhpmuB-6">
          <mxGeometry relative="1" as="geometry" />
        </mxCell>
        <mxCell id="UZjiTzk7R62L4bwhpmuB-38" value="&lt;b&gt;Aufgabe 2:&lt;br&gt;&lt;/b&gt;- Anbinndung über python-requests oder univention-lib? Siehe Code&amp;nbsp;" style="ellipse;whiteSpace=wrap;html=1;fillColor=#d5e8d4;strokeColor=#82b366;" vertex="1" parent="WIyWlLk6GJQsqaUBKTNV-1">
          <mxGeometry x="-220" y="540" width="200" height="100" as="geometry" />
        </mxCell>
        <mxCell id="UZjiTzk7R62L4bwhpmuB-41" style="edgeStyle=none;curved=1;rounded=0;orthogonalLoop=1;jettySize=auto;html=1;exitX=0;exitY=0.5;exitDx=0;exitDy=0;fontSize=12;startSize=8;endSize=8;" edge="1" parent="WIyWlLk6GJQsqaUBKTNV-1" source="UZjiTzk7R62L4bwhpmuB-40" target="UZjiTzk7R62L4bwhpmuB-7">
          <mxGeometry relative="1" as="geometry" />
        </mxCell>
        <mxCell id="UZjiTzk7R62L4bwhpmuB-40" value="&lt;b&gt;Aufgabe 3:&lt;br&gt;&lt;/b&gt;- Wie funktioniert das?&lt;br&gt;- Wirklich so einfach wie Beispiel-Code?" style="ellipse;whiteSpace=wrap;html=1;fillColor=#d5e8d4;strokeColor=#82b366;" vertex="1" parent="WIyWlLk6GJQsqaUBKTNV-1">
          <mxGeometry x="880" y="570" width="200" height="100" as="geometry" />
        </mxCell>
        <mxCell id="UZjiTzk7R62L4bwhpmuB-43" style="edgeStyle=none;curved=1;rounded=0;orthogonalLoop=1;jettySize=auto;html=1;exitX=0;exitY=0.5;exitDx=0;exitDy=0;fontSize=12;startSize=8;endSize=8;" edge="1" parent="WIyWlLk6GJQsqaUBKTNV-1" source="UZjiTzk7R62L4bwhpmuB-42" target="UZjiTzk7R62L4bwhpmuB-0">
          <mxGeometry relative="1" as="geometry" />
        </mxCell>
        <mxCell id="UZjiTzk7R62L4bwhpmuB-42" value="&lt;b&gt;Aufgabe 4:&lt;/b&gt;&lt;div&gt;Portal und Helpdesk Interaktionen?&lt;br&gt;Wirklich komplett eigentständig?&lt;/div&gt;&lt;div&gt;Gibt es hier &quot;extensions&quot; Richtlinien, oder wirklich vollständig eigene App&lt;/div&gt;" style="ellipse;whiteSpace=wrap;html=1;fillColor=#d5e8d4;strokeColor=#82b366;" vertex="1" parent="WIyWlLk6GJQsqaUBKTNV-1">
          <mxGeometry x="697" y="370" width="313" height="110" as="geometry" />
        </mxCell>
        <mxCell id="UZjiTzk7R62L4bwhpmuB-44" value="&lt;b&gt;Aufgabe 5:&lt;br&gt;Komplett non-kubernetes lokales Dev-Setup&lt;/b&gt;&lt;div&gt;&lt;b&gt;(geht das eigentlich..?), ansonsten Anbinndung&lt;/b&gt;&lt;/div&gt;&lt;div&gt;&lt;b&gt;via kube-proxy&lt;/b&gt;&lt;/div&gt;" style="ellipse;whiteSpace=wrap;html=1;fillColor=#d5e8d4;strokeColor=#82b366;" vertex="1" parent="WIyWlLk6GJQsqaUBKTNV-1">
          <mxGeometry x="-250" y="940" width="313" height="110" as="geometry" />
        </mxCell>
        <mxCell id="UZjiTzk7R62L4bwhpmuB-45" value="&lt;b&gt;Aufgabe 6:&lt;br&gt;Automatisches Test-Setup? Wie wo wer?&lt;/b&gt;" style="ellipse;whiteSpace=wrap;html=1;fillColor=#d5e8d4;strokeColor=#82b366;" vertex="1" parent="WIyWlLk6GJQsqaUBKTNV-1">
          <mxGeometry x="110" y="950" width="313" height="110" as="geometry" />
        </mxCell>
      </root>
    </mxGraphModel>
  </diagram>
</mxfile>
